<?xml version="1.0" standalone="no"?><!DOCTYPE svg PUBLIC "-//W3C//DTD SVG 1.1//EN" "http://www.w3.org/Graphics/SVG/1.1/DTD/svg11.dtd"><svg t="1730875222314" class="icon" viewBox="0 0 1024 1024" version="1.1" xmlns="http://www.w3.org/2000/svg" p-id="11146" xmlns:xlink="http://www.w3.org/1999/xlink" width="200" height="200"><path d="M739.84 232.96a51.2 51.2 0 1 0 51.2 51.2 51.2 51.2 0 0 0-51.2-51.2z m196.266667 103.253333a323.84 323.84 0 0 0-19.626667-103.68 210.773333 210.773333 0 0 0-49.493333-75.52 200.533333 200.533333 0 0 0-75.52-49.066666 311.466667 311.466667 0 0 0-103.68-20.053334C642.56 85.333333 628.053333 85.333333 512 85.333333s-130.56 0-175.786667 2.56a311.466667 311.466667 0 0 0-103.68 20.053334 203.946667 203.946667 0 0 0-75.52 49.066666 200.533333 200.533333 0 0 0-49.066666 75.52 311.466667 311.466667 0 0 0-20.053334 103.68C85.333333 381.44 85.333333 395.946667 85.333333 512s0 130.56 2.56 175.786667a311.466667 311.466667 0 0 0 20.053334 103.68 200.533333 200.533333 0 0 0 49.066666 75.52 203.946667 203.946667 0 0 0 75.52 49.066666 311.466667 311.466667 0 0 0 103.68 20.053334C381.44 938.666667 395.946667 938.666667 512 938.666667s130.56 0 175.786667-2.56a311.466667 311.466667 0 0 0 103.68-20.053334 200.533333 200.533333 0 0 0 75.52-49.066666 206.933333 206.933333 0 0 0 49.493333-75.52 323.84 323.84 0 0 0 19.626667-103.68c0-45.226667 2.56-59.733333 2.56-175.786667s0-130.56-2.56-175.786667zM859.306667 682.666667a239.36 239.36 0 0 1-14.506667 79.36 130.56 130.56 0 0 1-32 49.066666 136.106667 136.106667 0 0 1-49.066667 32 239.36 239.36 0 0 1-79.36 14.506667c-42.666667 2.133333-58.453333 2.56-170.666666 2.56s-128 0-170.666667-2.56a244.48 244.48 0 0 1-82.773333-12.8 139.52 139.52 0 0 1-46.933334-32 128 128 0 0 1-31.573333-49.066667 236.373333 236.373333 0 0 1-17.066667-81.066666c0-42.666667-2.56-58.453333-2.56-170.666667s0-128 2.56-170.666667a236.373333 236.373333 0 0 1 14.933334-81.066666A128 128 0 0 1 213.333333 213.333333a133.973333 133.973333 0 0 1 46.933334-34.133333A244.48 244.48 0 0 1 341.333333 164.693333c42.666667 0 58.453333-2.56 170.666667-2.56s128 0 170.666667 2.56a239.36 239.36 0 0 1 79.36 14.506667 130.56 130.56 0 0 1 50.773333 34.133333 130.56 130.56 0 0 1 32 46.933334 239.36 239.36 0 0 1 14.506667 81.066666c2.133333 42.666667 2.56 58.453333 2.56 170.666667s-0.426667 128-2.56 170.666667zM512 293.12A218.88 218.88 0 1 0 731.306667 512 218.453333 218.453333 0 0 0 512 293.12z m0 360.96A142.08 142.08 0 1 1 654.08 512 142.08 142.08 0 0 1 512 654.08z" p-id="11147" fill="#d81e06"></path></svg>